<?xml version="1.0" standalone="no"?>
<!DOCTYPE svg PUBLIC "-//W3C//DTD SVG 20010904//EN"
 "http://www.w3.org/TR/2001/REC-SVG-20010904/DTD/svg10.dtd">
<svg version="1.0" xmlns="http://www.w3.org/2000/svg"
 width="1144.000000pt" height="1144.000000pt" viewBox="0 0 1144.000000 1144.000000"
 preserveAspectRatio="xMidYMid meet">
<metadata>
Created by potrace 1.14, written by Peter Selinger 2001-2017
</metadata>
<g transform="translate(0.000000,1144.000000) scale(0.100000,-0.100000)"
fill="#000000" stroke="none">
<path d="M686 6534 c-131 -28 -275 -99 -367 -181 -92 -82 -128 -125 -183 -220
-206 -357 -120 -804 204 -1064 60 -48 171 -109 242 -133 142 -49 -193 -46
5158 -43 2742 1 4998 6 5014 10 181 49 332 135 439 251 273 296 298 742 58
1059 -131 174 -285 272 -506 322 -50 12 -855 14 -5025 14 -4359 -1 -4973 -2
-5034 -15z"/>
</g>
</svg>
